<?xml version="1.0" encoding="UTF-8"?>
<svg width="572px" height="572px" viewBox="0 0 572 572" version="1.1" xmlns="http://www.w3.org/2000/svg" xmlns:xlink="http://www.w3.org/1999/xlink">
    <title>full logo</title>
    <g id="Style" stroke="none" stroke-width="1" fill="none" fill-rule="evenodd">
        <g id="Brand-Guide" transform="translate(-408.000000, -24.000000)">
            <g id="full-logo" transform="translate(408.000000, 24.000000)">
                <rect id="logo-bounding" x="0" y="0" width="572" height="572"></rect>
                <g id="logo" transform="translate(36.000000, 107.000000)">
                    <path d="M492.993286,234.516168 C482.879047,253.81171 464.28634,277.926266 443.748587,286.555662 C440.40939,287.958974 437.722569,283.364101 439.974473,280.820598 C447.413972,272.417779 457.081213,266.1516 464.77683,257.853542 C471.873227,250.198669 478.174693,241.793413 484.079901,233.183508 C498.395923,212.316548 508.067996,188.277518 505.318354,162.60129 C505.311105,162.523328 505.429499,162.516019 505.439164,162.593981 C508.860512,187.305432 504.547584,212.472472 492.993286,234.516168 M312.384289,22.4406114 C309.46068,23.4443694 306.32686,21.561105 305.720393,18.5449583 C305.171914,15.8236046 306.713453,13.6065662 309.139324,12.5784451 C311.61352,11.5332699 314.872982,13.3385726 315.602676,15.8552766 C316.387943,18.5547035 315.092856,21.5123789 312.384289,22.4406114 M288.804533,20.2260093 C284.839539,19.8897991 280.874544,19.7241303 276.90955,19.6802768 C256.403208,21.4271082 236.196476,24.0948631 215.636977,26.9014875 C194.410606,29.7982552 173.341288,34.1519339 152.218813,37.4092749 C139.091565,40.9492274 126.362991,45.6805334 114.757953,52.4607727 C114.342365,52.7044033 113.999264,52.1464893 114.354446,51.8468237 C124.401032,43.3465524 136.382998,37.7698482 149.027005,33.7694339 C163.574982,27.2791149 180.778371,25.1400383 197.068433,23.6465828 C227.536793,18.6009933 258.713101,13.5992573 289.350596,10.8705947 C296.00966,10.2785723 295.688305,20.8082865 288.804533,20.2260093 M516.080136,206.194112 C524.336312,173.757135 524.263826,140.499123 513.917631,108.532353 C508.732453,92.5112055 501.218052,77.216077 491.599135,63.3559327 C479.725898,46.250629 454.319489,36.2569022 449.806016,33.8449593 C440.725913,30.0516311 431.708632,26.650548 423.027203,23.6076019 C367.836221,4.2779509 308.745483,-3.21125344 250.500416,1.24962267 C217.524034,3.75414513 184.745781,10.1226488 153.23362,20.2406272 C122.540553,30.0979209 89.684981,43.0225237 63.8146613,62.7419837 C61.3283851,64.632557 61.4830223,67.3344203 62.9110002,69.0373981 C31.4519956,96.051158 9.36303862,134.985763 2.29805172,175.460113 C-2.44254482,202.583506 -0.284872695,231.524384 12.8786186,256.070166 C28.3882462,284.991553 57.2232508,302.874039 86.8096956,314.473291 C125.51007,329.636859 167.353929,338.366143 208.412521,343.962338 C253.295967,350.087211 301.243163,348.216128 338.694358,377.790445 C340.755382,379.420334 342.995205,379.249792 344.655139,378.185127 C342.243765,370.118518 345.841496,359.586367 352.142962,354.038899 C364.335139,343.31428 385.095182,339.301685 400.051498,333.642146 C417.738128,326.95205 436.770584,320.259518 452.802112,310.078195 C454.379895,309.076873 455.870694,308.026826 457.32525,306.954851 C461.679254,302.903274 465.922112,298.707956 469.940262,294.222716 C492.031636,269.572173 507.894029,238.350913 516.080136,206.194112" id="Fill-1" fill="#EA2043"></path>
                    <path d="M152.506726,175.961381 C151.775938,175.073805 150.723465,174.762939 149.742671,174.970898 C149.382522,174.687902 148.990904,174.462792 148.559075,174.317007 C147.013581,173.800326 144.98381,174.3899 144.022248,176.017123 C141.592117,180.133419 145.758305,184.391213 148.980414,184.378378 C150.739199,184.369774 152.417563,183.259231 153.150099,181.263257 C153.788227,179.522406 153.65186,177.350631 152.506726,175.961381" id="Fill-3" fill="#FEFEFE"></path>
                    <path d="M55.8322904,211.563555 C51.2715895,209.201318 47.6395494,205.721385 44.9612015,201.109398 C42.2803504,196.504591 40.9411765,190.999883 40.9411765,184.588096 C40.9411765,179.70566 41.8222778,174.258393 43.5794743,168.248688 C47.436796,155.434687 53.4893617,146.378247 61.7446809,141.093727 C69.9974969,135.804422 78.8135169,133.162162 88.1902378,133.162162 C96.7409262,133.162162 104.453066,136.125131 111.314143,142.051068 L115.088861,138.571135 C117.18398,136.883823 118.986233,135.725441 120.48811,135.084023 C122.002503,134.444998 123.762203,134.121896 125.777222,134.121896 C127.944931,134.121896 129.702128,134.6245 131.053817,135.622527 C132.392991,136.625341 133.058824,137.970404 133.058824,139.650537 C133.058824,140.291955 132.93617,141.055434 132.678348,141.933794 L128.157697,157.071739 C127.319149,159.639805 126.337922,161.437211 125.204005,162.480712 C124.077597,163.52182 122.543179,164.043571 120.620776,164.043571 C118.605757,164.043571 116.826033,163.560114 115.271589,162.602773 C113.727159,161.638253 111.949937,159.917433 109.934919,157.433135 C107.254068,154.070477 104.891114,151.689092 102.836045,150.286589 C100.780976,148.881692 98.5406758,148.182833 96.1176471,148.182833 C92.3429287,148.182833 88.7634543,150.00178 85.3692115,153.649247 C81.9724656,157.296714 79.0162703,163.363859 76.5106383,171.853075 C74.9161452,177.381716 74.1176471,182.149271 74.1176471,186.153347 C74.1176471,190.396759 74.9787234,193.625389 76.6958698,195.824879 C78.4130163,198.029155 80.8185232,199.130097 83.9274093,199.130097 C86.6057572,199.130097 88.6708385,198.529366 90.1451815,197.32551 C91.6070088,196.124048 92.7634543,194.044226 93.6020025,191.07647 L94.4806008,188.075208 C94.9011264,186.471663 95.1038798,185.389868 95.1038798,184.829824 C95.1038798,183.87009 94.8785982,183.190379 94.4205257,182.790689 C93.9599499,182.388606 93.1814768,181.943443 92.0876095,181.464773 L87.689612,179.904308 C85.767209,179.181516 84.8060075,177.860386 84.8060075,175.940918 C84.8060075,175.378481 84.8460576,174.938104 84.9286608,174.615002 C85.2665832,173.578681 85.8698373,172.815202 86.7484355,172.331745 C87.6295369,171.853075 88.9887359,171.61374 90.8285357,171.61374 L128.783479,171.735801 C131.554443,171.735801 132.93617,172.575867 132.93617,174.258393 C132.93617,174.576708 132.853567,175.060165 132.678348,175.69919 C132.352941,176.898259 131.79975,177.860386 131.053817,178.580785 C130.295369,179.303577 129.201502,180.021582 127.779725,180.746767 L124.518148,182.546567 C123.679599,183.030024 123.046308,183.489548 122.625782,183.929924 C122.20776,184.367907 121.9199,184.911198 121.747184,185.552616 L115.088861,207.779667 C114.250313,210.42432 113.309136,212.18822 112.265332,213.068973 C111.211514,213.949726 109.934919,214.390103 108.430538,214.390103 L103.153942,214.390103 C101.138924,214.390103 99.4818523,213.98802 98.1827284,213.186247 C96.8836045,212.389261 95.8197747,210.826403 94.9812265,208.502459 L93.7246558,205.01774 C87.689612,211.74545 80.1526909,215.108108 71.1013767,215.108108 C65.4868586,215.108108 60.4030038,213.930579 55.8322904,211.563555" id="Fill-5" fill="#F8F9FA"></path>
                    <path d="M213.938717,155.68046 C213.938717,151.335598 213.009016,148.341 211.152142,146.699117 C209.282636,145.057235 206.619853,144.236293 203.151161,144.236293 L200.364586,144.236293 L183.240919,204.030229 L186.285182,204.030229 C190.178303,204.030229 193.449939,203.228892 196.112722,201.633571 C198.785611,200.030897 201.253864,197.08286 203.535167,192.772305 C205.81647,188.466652 208.188722,182.173585 210.636765,173.888204 C212.834698,166.178707 213.938717,160.111093 213.938717,155.68046 M236.00647,140.241862 C242.438582,144.956761 245.647059,151.864921 245.647059,160.971244 C245.647059,165.482745 244.800728,170.690209 243.108067,176.596085 C240.321492,186.114104 236.55469,193.656962 231.827871,199.234461 C227.08842,204.811961 220.853364,208.872558 213.112597,211.4138 C205.371831,213.957493 195.460921,215.185229 183.374816,215.10436 L148.867267,214.979381 C147.093763,214.979381 145.719423,214.692664 144.749301,214.119231 C143.779179,213.548248 143.294118,212.766515 143.294118,211.781386 C143.294118,211.288821 143.417909,210.759498 143.665493,210.183613 C143.923181,209.448442 144.284451,208.911767 144.749301,208.58094 C145.214151,208.255014 145.916479,207.804109 146.84618,207.230675 C148.197782,206.493053 149.271485,205.672112 150.074867,204.770302 C150.880776,203.870942 151.572999,202.432457 152.171746,200.462198 L167.643173,147.559268 C167.974127,146.493269 168.150972,145.46893 168.150972,144.48135 C168.150972,143.57954 168.004443,142.824764 167.706332,142.209671 C167.405696,141.592127 167.004004,140.87656 166.498732,140.055619 C165.735772,138.98962 165.361871,138.12947 165.361871,137.472717 C165.361871,137.222759 165.44524,136.776755 165.609454,136.1151 C165.950512,135.049102 166.693262,134.294326 167.830124,133.843421 C168.974565,133.392516 170.730385,133.162162 173.095058,133.162162 L207.342391,133.162162 C220.02977,133.162162 229.576884,135.524513 236.00647,140.241862" id="Fill-7" fill="#F8F9FA"></path>
                    <path d="M316.64844,198.318306 C316.490216,198.928099 316.40015,199.383169 316.40015,199.685791 C316.40015,200.220498 316.548637,200.636887 316.83831,200.944059 C317.115811,201.24668 317.502852,201.399129 317.992131,201.399129 C318.975556,201.399129 319.800758,201.000943 320.496945,200.20002 C321.193132,199.401372 321.660503,199.000911 321.899057,199.000911 C322.308006,199.000911 322.6561,199.248924 322.943338,199.74495 C323.23301,200.238701 323.371761,200.828016 323.371761,201.517447 C323.45209,203.649449 322.636626,205.760973 320.925368,207.85657 C319.21411,209.947616 316.806665,211.681432 313.715203,213.053468 C310.621307,214.425503 307.159844,215.108108 303.330813,215.108108 C298.518356,215.108108 294.689325,214.195693 291.84372,212.366312 C288.990812,210.539207 287.150541,208.140989 286.344813,205.169382 C283.409142,208.21835 280.166758,210.521004 276.6274,212.081894 C273.07587,213.642783 269.475656,214.425503 265.807284,214.425503 C260.106336,214.425503 255.313354,213.108076 251.445375,210.482323 C247.574962,207.85657 245.647059,204.179606 245.647059,199.458256 C245.647059,197.328529 246.053574,195.114614 246.869038,192.832439 L254.687759,168.954923 C254.936049,168.272318 255.055326,167.701206 255.055326,167.243861 C255.055326,166.408807 254.845983,165.744405 254.439468,165.246104 C254.030519,164.747802 253.424397,164.238124 252.608933,163.703417 C251.793469,163.093624 251.226295,162.558916 250.897675,162.103847 C250.569055,161.648777 250.530108,161.038983 250.778398,160.276741 C251.265243,158.524722 253.830913,156.982035 258.475408,155.646405 C263.119903,154.317601 267.964004,153.648649 273.017449,153.648649 C277.742273,153.648649 281.211039,154.490528 283.409142,156.16291 C285.607244,157.842117 286.712381,160.124293 286.712381,163.018537 C286.712381,164.772831 286.422708,166.445213 285.845798,168.044784 L278.148788,191.806256 C277.829905,192.643585 277.661944,193.442232 277.661944,194.204474 C277.661944,195.269338 277.990564,196.067985 278.64537,196.602692 C279.292873,197.137399 280.147284,197.403615 281.211039,197.403615 C282.754336,197.403615 284.017697,196.984951 284.991386,196.147623 C285.977246,195.305743 286.950934,193.897302 287.924623,191.917748 L295.385513,168.954923 C295.633804,168.272318 295.75308,167.701206 295.75308,167.243861 C295.75308,166.408807 295.543737,165.744405 295.137222,165.246104 C294.728273,164.747802 294.161099,164.238124 293.425964,163.703417 C292.6105,163.093624 292.043326,162.558916 291.714706,162.103847 C291.386086,161.648777 291.347139,161.038983 291.59543,160.276741 C292.001945,158.524722 294.528667,156.982035 299.173162,155.646405 C303.817657,154.317601 308.661759,153.648649 313.715203,153.648649 C318.437593,153.648649 321.918531,154.490528 324.167751,156.16291 C326.404801,157.842117 327.529412,160.085612 327.529412,162.902494 C327.529412,164.349616 327.200792,166.062954 326.543552,168.044784 L316.64844,198.318306 Z" id="Fill-9" fill="#F8F9FA"></path>
                    <path d="M368.064628,160.191522 C365.790313,160.191522 363.562795,161.975717 361.363354,165.534209 C359.173273,169.100125 357.413721,173.40595 356.075338,178.456632 C354.748655,183.507315 354.12626,188.06555 354.203474,192.121439 C354.203474,196.674725 355.607372,198.956317 358.429208,198.956317 C359.451713,198.956317 360.310431,198.520785 361.019399,197.652196 C361.716669,196.781133 362.38586,195.350807 363.008255,193.363694 L372.175709,161.931174 C370.9239,160.773056 369.54574,160.191522 368.064628,160.191522 M391.554182,198.206509 C391.554182,198.788043 391.71563,199.243372 392.031507,199.577444 C392.338025,199.906568 392.728776,200.072367 393.196742,200.072367 C394.144374,200.072367 394.946935,199.63931 395.606767,198.768246 C396.275959,197.899657 396.725206,197.464126 396.963869,197.464126 C397.35696,197.464126 397.663478,197.758605 397.902141,198.335189 C398.140803,198.914248 398.255455,199.577444 398.255455,200.319828 C398.332669,202.559352 397.527768,204.835994 395.84543,207.154706 C394.163092,209.475892 391.907496,211.376393 389.088001,212.868584 C386.266166,214.358301 383.217367,215.108108 379.927566,215.108108 C376.008351,215.108108 372.606238,214.318707 369.709528,212.747328 C366.812819,211.173475 364.814604,209.102225 363.714884,206.533578 C361.602017,209.436298 359.173273,211.58921 356.430993,212.99479 C353.686372,214.405318 350.789662,215.108108 347.740864,215.108108 C344.135186,215.108108 340.789229,214.157857 337.693634,212.247457 C334.605058,210.34448 332.138877,207.629831 330.292751,204.113408 C328.458324,200.59451 327.529412,196.595537 327.529412,192.121439 C327.529412,184.583771 328.888853,177.481635 331.584337,170.812556 C334.289181,164.150901 338.065667,158.766146 342.920814,154.665714 C347.778301,150.560333 353.30498,148.513829 359.489151,148.513829 C362.853826,148.513829 365.731817,148.927089 368.123123,149.756084 C370.51209,150.587554 372.681112,151.82486 374.64189,153.48285 L378.63832,139.570582 C378.867623,138.823249 378.991634,138.199647 378.991634,137.704725 C378.991634,136.796542 378.77169,136.046735 378.341161,135.47015 C377.910633,134.888616 377.346734,134.307083 376.640105,133.728023 C375.856262,133.069777 375.292363,132.488243 374.939048,131.988371 C374.583394,131.493449 374.527238,130.830253 374.756542,130.001258 C375.224508,128.095807 377.690689,126.442766 382.155084,125.032237 C386.61948,123.626658 391.285101,122.918919 396.142588,122.918919 C400.684199,122.918919 404.030156,123.834525 406.180459,125.653365 C408.330763,127.479629 409.411765,129.961664 409.411765,133.10937 C409.411765,134.930685 409.133325,136.709931 408.590484,138.449583 L391.792844,196.842998 C391.629056,197.50372 391.554182,197.959048 391.554182,198.206509" id="Fill-11" fill="#F8F9FA"></path>
                    <path d="M440.531194,180.774513 C444.089002,180.774513 446.79658,179.283731 448.666579,176.309003 C450.528988,173.331997 451.417175,170.017626 451.3362,166.352215 C451.242574,164.220897 450.569475,163.14954 449.299191,163.14954 C448.367987,163.14954 447.262182,163.819708 445.999489,165.150927 C444.729205,166.486705 443.476634,168.490372 442.246837,171.164207 C441.01704,173.831204 439.982087,176.997408 439.134388,180.65826 C439.475998,180.738042 439.9416,180.774513 440.531194,180.774513 M473.821747,158.287399 C478.649839,161.373821 481.058824,165.324168 481.058824,170.129321 C481.058824,171.581353 480.894345,172.91941 480.552734,174.138934 C479.27992,179.172036 475.744886,182.775901 469.945103,184.950529 C464.14532,187.125157 457.300462,188.210192 449.423183,188.210192 C445.442791,188.210192 441.720504,187.982243 438.246201,187.526346 C438.162696,191.494929 439.341884,194.278179 441.804009,195.880657 C444.263603,197.483134 447.684766,198.283233 452.090273,198.283233 C454.127283,198.283233 456.070666,198.073521 457.940665,197.654096 C459.803074,197.23695 462.169041,196.607812 465.05375,195.764403 C467.422248,195.005335 469.034142,194.624661 469.881842,194.624661 C470.813046,194.624661 471.278648,195.11703 471.278648,196.108605 C471.362153,198.782441 470.26647,201.586206 467.971355,204.519903 C465.686362,207.458158 462.295564,209.958753 457.806552,212.017127 C453.32007,214.080061 447.902385,215.108108 441.543373,215.108108 C432.145295,215.108108 424.445147,212.969952 418.427745,208.695918 C412.410344,204.426444 409.411765,198.21029 409.411765,190.045177 C409.411765,187.754295 409.743253,185.087298 410.423943,182.032789 C412.544457,172.648151 417.175174,165.574911 424.331277,160.801671 C431.49497,156.037548 440.189584,153.648649 450.445483,153.648649 C461.19735,153.648649 468.993655,155.194139 473.821747,158.287399" id="Fill-13" fill="#F8F9FA"></path>
                </g>
            </g>
        </g>
    </g>
</svg>